<?xml version="1.0" standalone="no"?>
<!DOCTYPE svg PUBLIC "-//W3C//DTD SVG 20010904//EN"
 "http://www.w3.org/TR/2001/REC-SVG-20010904/DTD/svg10.dtd">
<svg version="1.0" xmlns="http://www.w3.org/2000/svg"
 width="239.000000pt" height="239.000000pt" viewBox="0 0 239.000000 239.000000"
 preserveAspectRatio="xMidYMid meet">
<metadata>
Created by potrace 1.11, written by Peter Selinger 2001-2013
</metadata>
<g transform="translate(0.000000,239.000000) scale(0.100000,-0.100000)"
fill="#000000" stroke="none">
<path d="M1114 1627 c-3 -8 -5 -21 -3 -28 4 -32 -2 -99 -8 -98 -34 6 -75 -3
-80 -17 -9 -23 22 -44 58 -39 26 3 29 0 29 -23 2 -205 9 -362 18 -384 22 -53
111 -83 172 -58 23 9 30 19 30 39 l0 28 -50 -11 c-46 -9 -52 -8 -73 12 -21 22
-22 29 -22 210 l0 187 60 1 c85 2 85 1 85 29 0 27 -6 28 -102 25 l-47 -1 -3
68 c-3 66 -4 68 -31 71 -17 2 -29 -2 -33 -11z"/>
</g>
</svg>
